<?xml version="1.0" encoding="UTF-8" standalone="no"?>
<!DOCTYPE svg PUBLIC "-//W3C//DTD SVG 1.1//EN"
 "http://www.w3.org/Graphics/SVG/1.1/DTD/svg11.dtd">
<!-- Generated by graphviz version 15.0.0 (20260523.1842)
 -->
<!-- Title: G Pages: 1 -->
<svg width="379pt" height="262pt"
 viewBox="0.00 0.00 379.00 262.00" xmlns="http://www.w3.org/2000/svg" xmlns:xlink="http://www.w3.org/1999/xlink">
<g id="graph0" class="graph" transform="scale(1 1) rotate(0) translate(4 258)">
<title>G</title><style>.edge>path:hover{stroke-width:8}</style>
<polygon fill="white" stroke="none" points="-4,4 -4,-258 375.41,-258 375.41,4 -4,4"/>
<!-- dotenv -->
<g id="node1" class="node">
<title>dotenv</title><style>.edge>path:hover{stroke-width:8}</style>
<ellipse fill="#ce3b3b" stroke="black" cx="146" cy="-236" rx="27.21" ry="18"/>
<text xml:space="preserve" text-anchor="middle" x="146" y="-232.5" font-family="Helvetica,sans-Serif" font-size="10.00" fill="#ffffff">dotenv</text>
</g>
<!-- query_data -->
<g id="node5" class="node">
<title>query_data</title><style>.edge>path:hover{stroke-width:8}</style>
<ellipse fill="#466ca4" stroke="black" cx="218" cy="-127" rx="38.49" ry="18"/>
<text xml:space="preserve" text-anchor="middle" x="218" y="-123.5" font-family="Helvetica,sans-Serif" font-size="10.00" fill="#ffffff">query_data</text>
</g>
<!-- dotenv&#45;&gt;query_data -->
<g id="edge1" class="edge">
<title>dotenv&#45;&gt;query_data</title><style>.edge>path:hover{stroke-width:8}</style>
<path fill="none" stroke="black" d="M203,-181C205.15,-172.93 207.58,-164.19 209.84,-156.19"/>
<polygon fill="#ce3b3b" stroke="black" points="213.2,-157.18 212.58,-146.6 206.47,-155.26 213.2,-157.18"/>
<path fill="none" stroke="black" d="M166.91,-223.86C181.07,-214.82 198.07,-200.54 203,-182"/>
</g>
<!-- src_load_data -->
<g id="node7" class="node">
<title>src_load_data</title><style>.edge>path:hover{stroke-width:8}</style>
<ellipse fill="#9246a4" stroke="black" cx="117" cy="-127" rx="44.8" ry="18"/>
<text xml:space="preserve" text-anchor="middle" x="117" y="-123.5" font-family="Helvetica,sans-Serif" font-size="10.00" fill="#ffffff">src.load_data</text>
</g>
<!-- dotenv&#45;&gt;src_load_data -->
<g id="edge2" class="edge">
<title>dotenv&#45;&gt;src_load_data</title><style>.edge>path:hover{stroke-width:8}</style>
<path fill="none" stroke="black" d="M155.62,-219.02C160.98,-207.86 165.25,-193.04 158,-182"/>
<path fill="none" stroke="black" d="M158,-181C151.81,-171.57 144.43,-161.69 137.65,-153.04"/>
<polygon fill="#ce3b3b" stroke="black" points="140.53,-151.04 131.55,-145.41 135.06,-155.4 140.53,-151.04"/>
</g>
<!-- src_query_data -->
<g id="node8" class="node">
<title>src_query_data</title><style>.edge>path:hover{stroke-width:8}</style>
<ellipse fill="#9246a4" stroke="black" cx="323" cy="-127" rx="48.41" ry="18"/>
<text xml:space="preserve" text-anchor="middle" x="323" y="-123.5" font-family="Helvetica,sans-Serif" font-size="10.00" fill="#ffffff">src.query_data</text>
</g>
<!-- dotenv&#45;&gt;src_query_data -->
<g id="edge3" class="edge">
<title>dotenv&#45;&gt;src_query_data</title><style>.edge>path:hover{stroke-width:8}</style>
<path fill="none" stroke="black" d="M167.57,-224.45C172.29,-222.24 177.29,-219.98 182,-218 224.39,-200.17 244.37,-212.25 279,-182"/>
<path fill="none" stroke="black" d="M279,-181C288.32,-172.86 297.3,-162.63 304.68,-153.35"/>
<polygon fill="#ce3b3b" stroke="black" points="307.26,-155.74 310.57,-145.68 301.71,-151.48 307.26,-155.74"/>
</g>
<!-- flask -->
<g id="node2" class="node">
<title>flask</title><style>.edge>path:hover{stroke-width:8}</style>
<ellipse fill="#a6c040" stroke="black" cx="27" cy="-127" rx="27" ry="18"/>
<text xml:space="preserve" text-anchor="middle" x="27" y="-123.5" font-family="Helvetica,sans-Serif" font-size="10.00" fill="#000000">flask</text>
</g>
<!-- src_flask_app -->
<g id="node6" class="node">
<title>src_flask_app</title><style>.edge>path:hover{stroke-width:8}</style>
<ellipse fill="#9849ac" stroke="black" cx="122" cy="-18" rx="44.8" ry="18"/>
<text xml:space="preserve" text-anchor="middle" x="122" y="-14.5" font-family="Helvetica,sans-Serif" font-size="10.00" fill="#ffffff">src.flask_app</text>
</g>
<!-- flask&#45;&gt;src_flask_app -->
<g id="edge4" class="edge">
<title>flask&#45;&gt;src_flask_app</title><style>.edge>path:hover{stroke-width:8}</style>
<path fill="none" stroke="black" d="M48.09,-115.41C76.08,-101.18 122.02,-77.2 122,-73"/>
<path fill="none" stroke="black" d="M122,-72C121.96,-64.06 121.95,-55.44 121.95,-47.52"/>
<polygon fill="#a6c040" stroke="black" points="125.45,-47.7 121.96,-37.7 118.45,-47.7 125.45,-47.7"/>
</g>
<!-- psycopg -->
<g id="node3" class="node">
<title>psycopg</title><style>.edge>path:hover{stroke-width:8}</style>
<ellipse fill="#26d96e" stroke="black" cx="323" cy="-236" rx="31.72" ry="18"/>
<text xml:space="preserve" text-anchor="middle" x="323" y="-232.5" font-family="Helvetica,sans-Serif" font-size="10.00" fill="#000000">psycopg</text>
</g>
<!-- psycopg&#45;&gt;query_data -->
<g id="edge5" class="edge">
<title>psycopg&#45;&gt;query_data</title><style>.edge>path:hover{stroke-width:8}</style>
<path fill="none" stroke="black" d="M323,-181C317.61,-167.63 286.2,-152.87 259.13,-142.34"/>
<polygon fill="#26d96e" stroke="black" points="260.65,-139.17 250.06,-138.91 258.18,-145.72 260.65,-139.17"/>
<path fill="none" stroke="black" d="M326.2,-217.67C327.4,-207 327.54,-193.26 323,-182"/>
</g>
<!-- psycopg&#45;&gt;src_load_data -->
<g id="edge6" class="edge">
<title>psycopg&#45;&gt;src_load_data</title><style>.edge>path:hover{stroke-width:8}</style>
<path fill="none" stroke="black" d="M300.17,-223.14C264.73,-204.73 196.14,-169.11 153.69,-147.06"/>
<polygon fill="#26d96e" stroke="black" points="155.33,-143.97 144.84,-142.46 152.11,-150.18 155.33,-143.97"/>
</g>
<!-- psycopg&#45;&gt;src_query_data -->
<g id="edge7" class="edge">
<title>psycopg&#45;&gt;src_query_data</title><style>.edge>path:hover{stroke-width:8}</style>
<path fill="none" stroke="black" d="M323,-181C319.95,-173.43 319.01,-164.75 319.09,-156.63"/>
<polygon fill="#26d96e" stroke="black" points="322.57,-157.04 319.71,-146.84 315.58,-156.6 322.57,-157.04"/>
</g>
<!-- psycopg_sql -->
<g id="node4" class="node">
<title>psycopg_sql</title><style>.edge>path:hover{stroke-width:8}</style>
<ellipse fill="#3bce76" stroke="black" cx="232" cy="-236" rx="41.19" ry="18"/>
<text xml:space="preserve" text-anchor="middle" x="232" y="-232.5" font-family="Helvetica,sans-Serif" font-size="10.00" fill="#000000">psycopg.sql</text>
</g>
<!-- psycopg_sql&#45;&gt;query_data -->
<g id="edge8" class="edge">
<title>psycopg_sql&#45;&gt;query_data</title><style>.edge>path:hover{stroke-width:8}</style>
<path fill="none" stroke="black" d="M215.67,-219.16C207.26,-209.05 199.44,-195.38 203,-182"/>
</g>
<!-- psycopg_sql&#45;&gt;src_load_data -->
<g id="edge9" class="edge">
<title>psycopg_sql&#45;&gt;src_load_data</title><style>.edge>path:hover{stroke-width:8}</style>
<path fill="none" stroke="black" d="M204.79,-222.01C188.77,-212.98 169.45,-199.44 158,-182"/>
</g>
<!-- psycopg_sql&#45;&gt;src_query_data -->
<g id="edge10" class="edge">
<title>psycopg_sql&#45;&gt;src_query_data</title><style>.edge>path:hover{stroke-width:8}</style>
<path fill="none" stroke="black" d="M244.61,-218.72C253.56,-207.69 266.22,-193.17 279,-182"/>
</g>
<!-- query_data&#45;&gt;src_flask_app -->
<g id="edge11" class="edge">
<title>query_data&#45;&gt;src_flask_app</title><style>.edge>path:hover{stroke-width:8}</style>
<path fill="none" stroke="black" d="M190.76,-113.88C162.39,-100.84 122.04,-80.9 122,-73"/>
</g>
</g>
</svg>
