<?xml version="1.0" encoding="UTF-8" standalone="no"?>
<!DOCTYPE svg PUBLIC "-//W3C//DTD SVG 1.1//EN"
 "http://www.w3.org/Graphics/SVG/1.1/DTD/svg11.dtd">
<!-- Generated by graphviz version 15.0.0 (20260523.1842)
 -->
<!-- Title: G Pages: 1 -->
<svg width="632pt" height="657pt"
 viewBox="0.00 0.00 632.00 657.00" xmlns="http://www.w3.org/2000/svg" xmlns:xlink="http://www.w3.org/1999/xlink">
<g id="graph0" class="graph" transform="scale(1 1) rotate(0) translate(4 653)">
<title>G</title><style>.edge>path:hover{stroke-width:8}</style>
<polygon fill="white" stroke="none" points="-4,4 -4,-653 627.76,-653 627.76,4 -4,4"/>
<!-- dotenv -->
<g id="node1" class="node">
<title>dotenv</title><style>.edge>path:hover{stroke-width:8}</style>
<ellipse fill="#b65353" stroke="black" cx="445.57" cy="-199" rx="27.21" ry="18"/>
<text xml:space="preserve" text-anchor="middle" x="445.57" y="-195.5" font-family="Helvetica,sans-Serif" font-size="10.00" fill="#ffffff">dotenv</text>
</g>
<!-- query_data -->
<g id="node16" class="node">
<title>query_data</title><style>.edge>path:hover{stroke-width:8}</style>
<ellipse fill="#9246a4" stroke="black" cx="483.57" cy="-127" rx="38.49" ry="18"/>
<text xml:space="preserve" text-anchor="middle" x="483.57" y="-123.5" font-family="Helvetica,sans-Serif" font-size="10.00" fill="#ffffff">query_data</text>
</g>
<!-- dotenv&#45;&gt;query_data -->
<g id="edge1" class="edge">
<title>dotenv&#45;&gt;query_data</title><style>.edge>path:hover{stroke-width:8}</style>
<path fill="none" stroke="black" d="M454.38,-181.76C458.78,-173.67 464.21,-163.66 469.19,-154.49"/>
<polygon fill="#b65353" stroke="black" points="472.12,-156.42 473.82,-145.96 465.97,-153.08 472.12,-156.42"/>
</g>
<!-- flask -->
<g id="node2" class="node">
<title>flask</title><style>.edge>path:hover{stroke-width:8}</style>
<polygon fill="blue" stroke="black" points="275.57,-145 221.57,-145 221.57,-109 275.57,-109 275.57,-145"/>
<text xml:space="preserve" text-anchor="middle" x="248.57" y="-123.5" font-family="Helvetica,sans-Serif" font-size="10.00" fill="white">flask</text>
</g>
<!-- flask_app_py -->
<g id="node13" class="node">
<title>flask_app_py</title><style>.edge>path:hover{stroke-width:8}</style>
<ellipse fill="#569f73" stroke="black" cx="483.57" cy="-18" rx="43" ry="18"/>
<text xml:space="preserve" text-anchor="middle" x="483.57" y="-14.5" font-family="Helvetica,sans-Serif" font-size="10.00" fill="#000000">flask_app.py</text>
</g>
<!-- flask&#45;&gt;flask_app_py -->
<g id="edge2" class="edge">
<title>flask&#45;&gt;flask_app_py</title><style>.edge>path:hover{stroke-width:8}</style>
<path fill="none" stroke="black" d="M483.57,-72C488.15,-64.83 489.42,-55.93 489.18,-47.48"/>
<polygon fill="blue" stroke="black" points="492.66,-47.16 488.16,-37.57 485.7,-47.88 492.66,-47.16"/>
<path fill="none" stroke="black" d="M275.86,-124.45C332.89,-120.52 461.29,-107.9 483.57,-73"/>
</g>
<!-- flask_app -->
<g id="node3" class="node">
<title>flask_app</title><style>.edge>path:hover{stroke-width:8}</style>
<polygon fill="blue" stroke="black" points="84.44,-577 28.69,-577 28.69,-541 84.44,-541 84.44,-577"/>
<text xml:space="preserve" text-anchor="middle" x="56.57" y="-555.5" font-family="Helvetica,sans-Serif" font-size="10.00" fill="white">flask.app</text>
</g>
<!-- flask_app&#45;&gt;flask -->
<g id="edge3" class="edge">
<title>flask_app&#45;&gt;flask</title><style>.edge>path:hover{stroke-width:8}</style>
<path fill="none" stroke="black" d="M52.09,-540.7C49.22,-525.76 47.53,-504.11 56.57,-488"/>
</g>
<!-- flask_ctx -->
<g id="node6" class="node">
<title>flask_ctx</title><style>.edge>path:hover{stroke-width:8}</style>
<polygon fill="blue" stroke="black" points="138.57,-505 84.57,-505 84.57,-469 138.57,-469 138.57,-505"/>
<text xml:space="preserve" text-anchor="middle" x="111.57" y="-483.5" font-family="Helvetica,sans-Serif" font-size="10.00" fill="white">flask.ctx</text>
</g>
<!-- flask_app&#45;&gt;flask_ctx -->
<g id="edge4" class="edge">
<title>flask_app&#45;&gt;flask_ctx</title><style>.edge>path:hover{stroke-width:8}</style>
<path fill="none" stroke="black" d="M77.16,-531.8C81.76,-525.94 86.64,-519.73 91.23,-513.89"/>
<polygon fill="blue" stroke="black" points="74.53,-529.48 71.1,-539.51 80.03,-533.81 74.53,-529.48"/>
<polygon fill="blue" stroke="black" points="93.77,-516.32 97.2,-506.29 88.27,-512 93.77,-516.32"/>
</g>
<!-- flask_globals -->
<g id="node7" class="node">
<title>flask_globals</title><style>.edge>path:hover{stroke-width:8}</style>
<polygon fill="blue" stroke="black" points="264.94,-433 194.19,-433 194.19,-397 264.94,-397 264.94,-433"/>
<text xml:space="preserve" text-anchor="middle" x="229.57" y="-411.5" font-family="Helvetica,sans-Serif" font-size="10.00" fill="white">flask.globals</text>
</g>
<!-- flask_app&#45;&gt;flask_globals -->
<g id="edge5" class="edge">
<title>flask_app&#45;&gt;flask_globals</title><style>.edge>path:hover{stroke-width:8}</style>
<path fill="none" stroke="black" d="M95.66,-548.54C122.12,-540.53 156.5,-526.79 180.57,-505 198.93,-488.38 211.9,-463.21 219.86,-443.87"/>
<polygon fill="blue" stroke="black" points="94.96,-545.1 86.31,-551.21 96.89,-551.83 94.96,-545.1"/>
<polygon fill="blue" stroke="black" points="223.07,-445.27 223.42,-434.68 216.54,-442.74 223.07,-445.27"/>
</g>
<!-- flask_templating -->
<g id="node11" class="node">
<title>flask_templating</title><style>.edge>path:hover{stroke-width:8}</style>
<polygon fill="blue" stroke="black" points="400.07,-217 339.07,-217 339.07,-181 400.07,-181 400.07,-217"/>
<text xml:space="preserve" text-anchor="middle" x="369.57" y="-201.5" font-family="Helvetica,sans-Serif" font-size="10.00" fill="white">flask.</text>
<text xml:space="preserve" text-anchor="middle" x="369.57" y="-189.5" font-family="Helvetica,sans-Serif" font-size="10.00" fill="white">templating</text>
</g>
<!-- flask_app&#45;&gt;flask_templating -->
<g id="edge6" class="edge">
<title>flask_app&#45;&gt;flask_templating</title><style>.edge>path:hover{stroke-width:8}</style>
<path fill="none" stroke="black" d="M95.83,-550.94C188.2,-533.22 411.57,-483.4 411.57,-416 411.57,-416 411.57,-416 411.57,-342 411.57,-300.92 395.21,-255.8 382.91,-227.69"/>
<polygon fill="blue" stroke="black" points="95.39,-547.46 86.21,-552.76 96.69,-554.34 95.39,-547.46"/>
<polygon fill="blue" stroke="black" points="386.21,-226.49 378.9,-218.82 379.83,-229.37 386.21,-226.49"/>
</g>
<!-- flask_blueprints -->
<g id="node4" class="node">
<title>flask_blueprints</title><style>.edge>path:hover{stroke-width:8}</style>
<polygon fill="blue" stroke="black" points="277.57,-217 219.57,-217 219.57,-181 277.57,-181 277.57,-217"/>
<text xml:space="preserve" text-anchor="middle" x="248.57" y="-201.5" font-family="Helvetica,sans-Serif" font-size="10.00" fill="white">flask.</text>
<text xml:space="preserve" text-anchor="middle" x="248.57" y="-189.5" font-family="Helvetica,sans-Serif" font-size="10.00" fill="white">blueprints</text>
</g>
<!-- flask_blueprints&#45;&gt;flask -->
<g id="edge7" class="edge">
<title>flask_blueprints&#45;&gt;flask</title><style>.edge>path:hover{stroke-width:8}</style>
<path fill="none" stroke="black" d="M248.57,-180.7C248.57,-173.41 248.57,-164.73 248.57,-156.54"/>
<polygon fill="blue" stroke="black" points="252.07,-156.62 248.57,-146.62 245.07,-156.62 252.07,-156.62"/>
</g>
<!-- flask_config -->
<g id="node5" class="node">
<title>flask_config</title><style>.edge>path:hover{stroke-width:8}</style>
<ellipse fill="#a2b653" stroke="black" cx="123.57" cy="-199" rx="39.84" ry="18"/>
<text xml:space="preserve" text-anchor="middle" x="123.57" y="-195.5" font-family="Helvetica,sans-Serif" font-size="10.00" fill="#000000">flask.config</text>
</g>
<!-- flask_config&#45;&gt;flask -->
<g id="edge8" class="edge">
<title>flask_config&#45;&gt;flask</title><style>.edge>path:hover{stroke-width:8}</style>
<path fill="none" stroke="black" d="M147.97,-184.34C165.96,-174.26 190.76,-160.37 211.24,-148.91"/>
<polygon fill="#a2b653" stroke="black" points="212.86,-152.01 219.87,-144.07 209.44,-145.9 212.86,-152.01"/>
</g>
<!-- flask_ctx&#45;&gt;flask -->
<g id="edge9" class="edge">
<title>flask_ctx&#45;&gt;flask</title><style>.edge>path:hover{stroke-width:8}</style>
<path fill="none" stroke="black" d="M112.99,-468.63C113.81,-454.41 114.22,-433.79 111.57,-416"/>
</g>
<!-- flask_ctx&#45;&gt;flask_globals -->
<g id="edge11" class="edge">
<title>flask_ctx&#45;&gt;flask_globals</title><style>.edge>path:hover{stroke-width:8}</style>
<path fill="none" stroke="black" d="M148.41,-464.15C161.85,-456.17 177.09,-447.13 190.71,-439.05"/>
<polygon fill="blue" stroke="black" points="147.05,-460.88 140.24,-468.99 150.63,-466.9 147.05,-460.88"/>
<polygon fill="blue" stroke="black" points="192.17,-442.26 198.99,-434.14 188.6,-436.23 192.17,-442.26"/>
</g>
<!-- flask_globals&#45;&gt;flask -->
<g id="edge12" class="edge">
<title>flask_globals&#45;&gt;flask</title><style>.edge>path:hover{stroke-width:8}</style>
<path fill="none" stroke="black" d="M191.57,-198C201.8,-182.84 214.54,-166.96 225.39,-154.16"/>
<polygon fill="blue" stroke="black" points="228.03,-156.46 231.9,-146.59 222.72,-151.89 228.03,-156.46"/>
<path fill="none" stroke="black" d="M193.72,-408.87C158.66,-401.56 108.42,-384.23 93.57,-344"/>
<path fill="none" stroke="black" d="M93.57,-342C79.57,-304.05 89.06,-285.91 112.57,-253 137.15,-218.6 167.92,-235.05 191.57,-200"/>
</g>
<!-- flask_globals&#45;&gt;flask_blueprints -->
<g id="edge14" class="edge">
<title>flask_globals&#45;&gt;flask_blueprints</title><style>.edge>path:hover{stroke-width:8}</style>
<path fill="none" stroke="black" d="M232.57,-396.78C235.29,-382.46 239.75,-361.64 245.57,-344"/>
<path fill="none" stroke="black" d="M245.57,-342C258,-304.3 255.98,-257.85 252.77,-228.57"/>
<polygon fill="blue" stroke="black" points="256.25,-228.15 251.55,-218.66 249.3,-229.01 256.25,-228.15"/>
</g>
<!-- flask_helpers -->
<g id="node8" class="node">
<title>flask_helpers</title><style>.edge>path:hover{stroke-width:8}</style>
<polygon fill="blue" stroke="black" points="345.32,-289 273.82,-289 273.82,-253 345.32,-253 345.32,-289"/>
<text xml:space="preserve" text-anchor="middle" x="309.57" y="-267.5" font-family="Helvetica,sans-Serif" font-size="10.00" fill="white">flask.helpers</text>
</g>
<!-- flask_globals&#45;&gt;flask_helpers -->
<g id="edge16" class="edge">
<title>flask_globals&#45;&gt;flask_helpers</title><style>.edge>path:hover{stroke-width:8}</style>
<path fill="none" stroke="black" d="M245.57,-342C251.36,-324.42 264.4,-308.79 277.21,-296.78"/>
<polygon fill="blue" stroke="black" points="279.22,-299.68 284.38,-290.43 274.58,-294.44 279.22,-299.68"/>
</g>
<!-- flask_json -->
<g id="node9" class="node">
<title>flask_json</title><style>.edge>path:hover{stroke-width:8}</style>
<polygon fill="blue" stroke="black" points="179.57,-289 121.57,-289 121.57,-253 179.57,-253 179.57,-289"/>
<text xml:space="preserve" text-anchor="middle" x="150.57" y="-267.5" font-family="Helvetica,sans-Serif" font-size="10.00" fill="white">flask.json</text>
</g>
<!-- flask_globals&#45;&gt;flask_json -->
<g id="edge17" class="edge">
<title>flask_globals&#45;&gt;flask_json</title><style>.edge>path:hover{stroke-width:8}</style>
<path fill="none" stroke="black" d="M93.57,-342C87.22,-324.79 98.59,-308.69 112.8,-296.28"/>
<polygon fill="blue" stroke="black" points="114.58,-299.34 120.2,-290.36 110.21,-293.87 114.58,-299.34"/>
</g>
<!-- flask_globals&#45;&gt;flask_templating -->
<g id="edge18" class="edge">
<title>flask_globals&#45;&gt;flask_templating</title><style>.edge>path:hover{stroke-width:8}</style>
<path fill="none" stroke="black" d="M254.57,-396.67C283.66,-375.04 330.72,-335.23 354.57,-289 364.19,-270.35 367.85,-246.87 369.15,-228.7"/>
<polygon fill="blue" stroke="black" points="372.64,-229.05 369.64,-218.88 365.65,-228.7 372.64,-229.05"/>
</g>
<!-- flask_wrappers -->
<g id="node12" class="node">
<title>flask_wrappers</title><style>.edge>path:hover{stroke-width:8}</style>
<polygon fill="blue" stroke="black" points="217.44,-361 137.69,-361 137.69,-325 217.44,-325 217.44,-361"/>
<text xml:space="preserve" text-anchor="middle" x="177.57" y="-339.5" font-family="Helvetica,sans-Serif" font-size="10.00" fill="white">flask.wrappers</text>
</g>
<!-- flask_globals&#45;&gt;flask_wrappers -->
<g id="edge19" class="edge">
<title>flask_globals&#45;&gt;flask_wrappers</title><style>.edge>path:hover{stroke-width:8}</style>
<path fill="none" stroke="black" d="M209.89,-387.51C205.68,-381.85 201.24,-375.86 197.03,-370.2"/>
<polygon fill="blue" stroke="black" points="207.04,-389.54 215.81,-395.48 212.66,-385.37 207.04,-389.54"/>
<polygon fill="blue" stroke="black" points="199.95,-368.26 191.18,-362.32 194.33,-372.43 199.95,-368.26"/>
</g>
<!-- flask_helpers&#45;&gt;flask -->
<g id="edge20" class="edge">
<title>flask_helpers&#45;&gt;flask</title><style>.edge>path:hover{stroke-width:8}</style>
<path fill="none" stroke="black" d="M307.03,-252.63C303.9,-234.2 297.59,-204.56 286.57,-181 282.23,-171.71 276.2,-162.36 270.23,-154.16"/>
<polygon fill="blue" stroke="black" points="273.1,-152.16 264.26,-146.33 267.54,-156.4 273.1,-152.16"/>
</g>
<!-- flask_helpers&#45;&gt;flask_app -->
<g id="edge21" class="edge">
<title>flask_helpers&#45;&gt;flask_app</title><style>.edge>path:hover{stroke-width:8}</style>
<path fill="none" stroke="black" d="M308.61,-289.45C306.3,-320.13 298.61,-385.01 273.57,-433 253.49,-471.49 243.8,-481.09 207.57,-505 173.18,-527.69 127.97,-541.88 96.01,-549.8"/>
<polygon fill="blue" stroke="black" points="95.27,-546.37 86.35,-552.09 96.89,-553.19 95.27,-546.37"/>
</g>
<!-- flask_helpers&#45;&gt;flask_blueprints -->
<g id="edge22" class="edge">
<title>flask_helpers&#45;&gt;flask_blueprints</title><style>.edge>path:hover{stroke-width:8}</style>
<path fill="none" stroke="black" d="M294.49,-252.7C287.4,-244.56 278.8,-234.69 270.97,-225.7"/>
<polygon fill="blue" stroke="black" points="273.68,-223.49 264.47,-218.25 268.4,-228.08 273.68,-223.49"/>
</g>
<!-- flask_helpers&#45;&gt;flask_templating -->
<g id="edge23" class="edge">
<title>flask_helpers&#45;&gt;flask_templating</title><style>.edge>path:hover{stroke-width:8}</style>
<path fill="none" stroke="black" d="M324.4,-252.7C331.38,-244.56 339.84,-234.69 347.54,-225.7"/>
<polygon fill="blue" stroke="black" points="350.07,-228.12 353.92,-218.25 344.76,-223.57 350.07,-228.12"/>
</g>
<!-- flask_json&#45;&gt;flask -->
<g id="edge25" class="edge">
<title>flask_json&#45;&gt;flask</title><style>.edge>path:hover{stroke-width:8}</style>
<path fill="none" stroke="black" d="M159.92,-252.65C167.87,-238.25 179.83,-217.39 191.57,-200"/>
</g>
<!-- flask_signals -->
<g id="node10" class="node">
<title>flask_signals</title><style>.edge>path:hover{stroke-width:8}</style>
<ellipse fill="#c0e722" stroke="black" cx="56.57" cy="-631" rx="42.54" ry="18"/>
<text xml:space="preserve" text-anchor="middle" x="56.57" y="-627.5" font-family="Helvetica,sans-Serif" font-size="10.00" fill="#000000">flask.signals</text>
</g>
<!-- flask_signals&#45;&gt;flask -->
<g id="edge27" class="edge">
<title>flask_signals&#45;&gt;flask</title><style>.edge>path:hover{stroke-width:8}</style>
<path fill="none" stroke="black" d="M0.57,-558C4.51,-518.35 37.06,-522.74 56.57,-488"/>
<path fill="none" stroke="black" d="M56.57,-486C75.94,-451.5 117.41,-455.13 111.57,-416"/>
<path fill="none" stroke="black" d="M111.57,-414C107.51,-386.79 87.41,-387.38 79.57,-361 56.77,-284.29 26.93,-245.31 74.57,-181 105.54,-139.2 168.7,-129.25 209.8,-127.47"/>
<polygon fill="#c0e722" stroke="black" points="209.86,-130.97 219.76,-127.2 209.67,-123.97 209.86,-130.97"/>
<path fill="none" stroke="black" d="M33.86,-615.37C17.36,-602.74 -1.71,-582.92 0.57,-560"/>
</g>
<!-- flask_signals&#45;&gt;flask_app -->
<g id="edge28" class="edge">
<title>flask_signals&#45;&gt;flask_app</title><style>.edge>path:hover{stroke-width:8}</style>
<path fill="none" stroke="black" d="M56.57,-612.7C56.57,-605.41 56.57,-596.73 56.57,-588.54"/>
<polygon fill="#c0e722" stroke="black" points="60.07,-588.62 56.57,-578.62 53.07,-588.62 60.07,-588.62"/>
</g>
<!-- flask_signals&#45;&gt;flask_ctx -->
<g id="edge29" class="edge">
<title>flask_signals&#45;&gt;flask_ctx</title><style>.edge>path:hover{stroke-width:8}</style>
<path fill="none" stroke="black" d="M0.57,-558C2.31,-540.48 42.4,-518.61 73.9,-504.02"/>
<polygon fill="#c0e722" stroke="black" points="75.14,-507.3 82.81,-499.99 72.25,-500.92 75.14,-507.3"/>
</g>
<!-- flask_signals&#45;&gt;flask_helpers -->
<g id="edge30" class="edge">
<title>flask_signals&#45;&gt;flask_helpers</title><style>.edge>path:hover{stroke-width:8}</style>
<path fill="none" stroke="black" d="M99.22,-629.12C177.24,-625.03 342.51,-604.39 425.57,-505 471.96,-449.48 476.78,-411.03 449.57,-344"/>
<path fill="none" stroke="black" d="M449.57,-342C431.16,-307.82 389.7,-289.99 356.65,-280.91"/>
<polygon fill="#c0e722" stroke="black" points="357.83,-277.6 347.28,-278.52 356.11,-284.38 357.83,-277.6"/>
</g>
<!-- flask_signals&#45;&gt;flask_templating -->
<g id="edge31" class="edge">
<title>flask_signals&#45;&gt;flask_templating</title><style>.edge>path:hover{stroke-width:8}</style>
<path fill="none" stroke="black" d="M449.57,-342C429.25,-304.29 434.51,-289.79 412.57,-253 406.95,-243.58 399.78,-234.05 392.91,-225.71"/>
<polygon fill="#c0e722" stroke="black" points="395.79,-223.7 386.64,-218.35 390.46,-228.24 395.79,-223.7"/>
</g>
<!-- flask_templating&#45;&gt;flask -->
<g id="edge32" class="edge">
<title>flask_templating&#45;&gt;flask</title><style>.edge>path:hover{stroke-width:8}</style>
<path fill="none" stroke="black" d="M339.35,-180.52C323.08,-171.11 302.88,-159.42 285.67,-149.46"/>
<polygon fill="blue" stroke="black" points="287.65,-146.56 277.24,-144.59 284.14,-152.62 287.65,-146.56"/>
</g>
<!-- flask_wrappers&#45;&gt;flask -->
<g id="edge34" class="edge">
<title>flask_wrappers&#45;&gt;flask</title><style>.edge>path:hover{stroke-width:8}</style>
<path fill="none" stroke="black" d="M186.44,-324.6C193.17,-310.7 202.17,-290.53 207.57,-272"/>
<path fill="none" stroke="black" d="M207.57,-270C216.49,-239.36 173.72,-226.45 191.57,-200"/>
</g>
<!-- flask_wrappers&#45;&gt;flask_app -->
<g id="edge35" class="edge">
<title>flask_wrappers&#45;&gt;flask_app</title><style>.edge>path:hover{stroke-width:8}</style>
<path fill="none" stroke="black" d="M166.57,-416C156.24,-455.11 171.3,-472.24 147.57,-505 132.13,-526.32 105.26,-540.43 84.71,-548.69"/>
</g>
<!-- flask_wrappers&#45;&gt;flask_blueprints -->
<g id="edge36" class="edge">
<title>flask_wrappers&#45;&gt;flask_blueprints</title><style>.edge>path:hover{stroke-width:8}</style>
<path fill="none" stroke="black" d="M207.57,-270C212.04,-254.64 220.62,-239.12 228.78,-226.61"/>
<polygon fill="blue" stroke="black" points="231.55,-228.77 234.3,-218.54 225.77,-224.82 231.55,-228.77"/>
</g>
<!-- flask_wrappers&#45;&gt;flask_ctx -->
<g id="edge37" class="edge">
<title>flask_wrappers&#45;&gt;flask_ctx</title><style>.edge>path:hover{stroke-width:8}</style>
<path fill="none" stroke="black" d="M166.57,-416C161.08,-436.77 145.34,-455.62 132.1,-468.52"/>
<path fill="none" stroke="black" d="M175.83,-361.46C174.51,-372.85 172.36,-388.27 169.2,-402.98"/>
<polygon fill="blue" stroke="black" points="165.83,-401.99 166.92,-412.53 172.64,-403.61 165.83,-401.99"/>
</g>
<!-- flask_wrappers&#45;&gt;flask_helpers -->
<g id="edge39" class="edge">
<title>flask_wrappers&#45;&gt;flask_helpers</title><style>.edge>path:hover{stroke-width:8}</style>
<path fill="none" stroke="black" d="M220.68,-319.14C235.58,-311.24 252.24,-302.4 267.08,-294.53"/>
<polygon fill="blue" stroke="black" points="219.07,-316.03 211.88,-323.81 222.35,-322.21 219.07,-316.03"/>
<polygon fill="blue" stroke="black" points="268.49,-297.75 275.68,-289.97 265.21,-291.56 268.49,-297.75"/>
</g>
<!-- flask_wrappers&#45;&gt;flask_json -->
<g id="edge40" class="edge">
<title>flask_wrappers&#45;&gt;flask_json</title><style>.edge>path:hover{stroke-width:8}</style>
<path fill="none" stroke="black" d="M166.81,-314.1C164.97,-309.34 163.07,-304.41 161.24,-299.66"/>
<polygon fill="blue" stroke="black" points="163.49,-315.21 170.35,-323.28 170.02,-312.69 163.49,-315.21"/>
<polygon fill="blue" stroke="black" points="164.58,-298.59 157.71,-290.52 158.04,-301.11 164.58,-298.59"/>
</g>
<!-- psycopg -->
<g id="node14" class="node">
<title>psycopg</title><style>.edge>path:hover{stroke-width:8}</style>
<ellipse fill="#4073c0" stroke="black" cx="522.57" cy="-199" rx="31.72" ry="18"/>
<text xml:space="preserve" text-anchor="middle" x="522.57" y="-195.5" font-family="Helvetica,sans-Serif" font-size="10.00" fill="#ffffff">psycopg</text>
</g>
<!-- psycopg&#45;&gt;query_data -->
<g id="edge41" class="edge">
<title>psycopg&#45;&gt;query_data</title><style>.edge>path:hover{stroke-width:8}</style>
<path fill="none" stroke="black" d="M513.33,-181.41C508.81,-173.3 503.27,-163.35 498.19,-154.25"/>
<polygon fill="#4073c0" stroke="black" points="501.41,-152.82 493.48,-145.79 495.29,-156.23 501.41,-152.82"/>
</g>
<!-- psycopg_sql -->
<g id="node15" class="node">
<title>psycopg_sql</title><style>.edge>path:hover{stroke-width:8}</style>
<ellipse fill="#537bb6" stroke="black" cx="582.57" cy="-271" rx="41.19" ry="18"/>
<text xml:space="preserve" text-anchor="middle" x="582.57" y="-267.5" font-family="Helvetica,sans-Serif" font-size="10.00" fill="#ffffff">psycopg.sql</text>
</g>
<!-- psycopg_sql&#45;&gt;query_data -->
<g id="edge42" class="edge">
<title>psycopg_sql&#45;&gt;query_data</title><style>.edge>path:hover{stroke-width:8}</style>
<path fill="none" stroke="black" d="M582.65,-252.77C581.94,-233.66 578.34,-202.68 563.57,-181 553.11,-165.64 536.57,-153.6 521.24,-144.91"/>
<polygon fill="#537bb6" stroke="black" points="523.22,-142 512.75,-140.39 519.93,-148.18 523.22,-142"/>
</g>
<!-- query_data&#45;&gt;flask_app_py -->
<g id="edge43" class="edge">
<title>query_data&#45;&gt;flask_app_py</title><style>.edge>path:hover{stroke-width:8}</style>
<path fill="none" stroke="black" d="M479.13,-108.93C477.26,-97.85 476.84,-83.55 483.57,-73"/>
</g>
</g>
</svg>
